#!OML:ASF F:\VICON\USERDATA\INSTALL\rory3\rory3.ASF
:FULLY-SPECIFIED
:DEGREES
4072
root -3.00834 17.5696 0.650563 3.43372 7.97736 -0.886478
lowerback 5.11511 -0.841298 -2.21353
upperback 1.4756 -1.16697 3.87975
thorax -1.22102 -0.585027 5.33337
lowerneck -25.2444 1.11963 -8.44394
upperneck 20.2008 4.776 -0.149711
head 10.4712 1.48537 2.07217
rclavicle 9.34288e-015 1.27222e-014
rhumerus -24.477 -7.40241 -52.6858
rradius 54.8489
rwrist 33.5965
rhand -35.5484 -0.652068
rfingers 7.12502
rthumb -8.67405 -30.4539
lclavicle 9.34288e-015 1.27222e-014
lhumerus 2.32021 5.5087 58.3868
lradius 46.323
lwrist -19.4034
lhand -18.4235 26.7796
lfingers 7.12502
lthumb 7.86156 56.6134
rfemur -14.4572 -1.01603 11.2176
rtibia 31.6555
rfoot -18.1798 -5.62949
rtoes 4.76626
lfemur -18.3591 -1.39374 -14.0622
ltibia 33.423
lfoot -15.6333 -1.36735
ltoes -20.7549
4073
root -3.00184 17.571 0.648551 3.47489 8.70763 -1.07013
lowerback 5.14517 -0.518158 -2.18745
upperback 1.49427 -0.738075 3.65258
thorax -1.26881 -0.36889 5.05523
lowerneck -25.3426 0.737457 -8.71098
upperneck 20.3119 4.32802 -0.00519697
head 10.5418 1.2725 2.10128
rclavicle -1.09332e-014 -4.29375e-014
rhumerus -23.6108 -6.39699 -53.2254
rradius 55.3851
rwrist 33.3485
rhand -35.5557 -1.44233
rfingers 7.12502
rthumb -8.68105 -31.2438
lclavicle -1.09332e-014 -4.29375e-014
lhumerus 1.57909 7.08843 57.1921
lradius 46.1642
lwrist -20.1712
lhand -18.0358 27.5707
lfingers 7.12502
lthumb 8.23578 57.3902
rfemur -14.2259 -1.37063 11.4261
rtibia 31.4432
rfoot -18.3736 -6.0492
rtoes 4.63628
lfemur -18.6787 -1.6287 -13.8601
ltibia 33.5477
lfoot -15.6237 -1.88305
ltoes -20.5994
4074
root -2.99291 17.573 0.64942 3.5015 9.38514 -1.273
lowerback 5.17552 -0.180108 -2.14448
upperback 1.46273 -0.287761 3.43778
thorax -1.36661 -0.140606 4.77893
lowerneck -25.075 0.327515 -8.93129
upperneck 20.2689 3.79544 0.0633971
head 10.4999 1.025 2.07449
rclavicle 3.61788e-014 6.36111e-015
rhumerus -22.9038 -5.2547 -53.6454
rradius 55.8807
rwrist 33.3164
rhand -35.9582 -0.832452
rfingers 7.12502
rthumb -9.06945 -30.6175
lclavicle 3.61788e-014 6.36111e-015
lhumerus 0.666824 8.64078 55.9352
lradius 46.2023
lwrist -21.3183
lhand -18.0543 28.4911
lfingers 7.12502
lthumb 8.21791 58.3113
rfemur -13.9856 -1.75138 11.6412
rtibia 31.2101
rfoot -18.5307 -6.35027
rtoes 4.51623
lfemur -18.9746 -1.89759 -13.6497
ltibia 33.6976
lfoot -15.658 -2.29428
ltoes -20.3884
4075
root -2.98436 17.5761 0.652239 3.56519 10.0388 -1.5078
lowerback 5.20329 0.110087 -1.96396
upperback 1.40384 0.104086 3.131
thorax -1.48107 0.0582665 4.3312
lowerneck -24.8122 -0.0171659 -9.05671
upperneck 20.2242 3.29105 0.231706
head 10.4559 0.810526 2.07378
rclavicle 2.69353e-014 7.15625e-015
rhumerus -22.1639 -4.00479 -54.2528
rradius 56.38
rwrist 33.0887
rhand -36.1523 -0.401035
rfingers 7.12502
rthumb -9.25673 -30.1778
lclavicle 2.69353e-014 7.15625e-015
lhumerus -0.437377 9.58709 54.3089
lradius 46.3199
lwrist -20.7812
lhand -18.7643 28.332
lfingers 7.12502
lthumb 7.53267 58.1778
rfemur -13.7996 -2.0222 11.9012
rtibia 30.9824
rfoot -18.7527 -6.6436
rtoes 4.27513
lfemur -19.3057 -2.19198 -13.4005
ltibia 33.8276
lfoot -15.6704 -2.63683
ltoes -20.3464
4076
root -2.97629 17.5781 0.652017 3.58606 10.6816 -1.69893
lowerback 5.42336 0.395308 -1.6615
upperback 1.33311 0.491943 2.69046
thorax -1.70571 0.255432 3.67516
lowerneck -24.7454 -0.370618 -9.22257
upperneck 20.3201 2.75568 0.637302
head 10.4951 0.601791 2.16538
rclavicle -1.11319e-014 1.47101e-014
rhumerus -21.3651 -3.10424 -55.0157
rradius 56.7372
rwrist 33.2538
rhand -36.2829 -0.316855
rfingers 7.12502
rthumb -9.3828 -30.088
lclavicle -1.11319e-014 1.47101e-014
lhumerus -1.42309 10.2594 52.508
lradius 46.1039
lwrist -19.1966
lhand -19.5931 27.1028
lfingers 7.12502
lthumb 6.73266 56.9757
rfemur -13.5603 -2.19566 12.1155
rtibia 30.7369
rfoot -19.0426 -6.95521
rtoes 4.21762
lfemur -19.589 -2.56831 -13.1923
ltibia 33.9341
lfoot -15.6495 -2.91934
ltoes -20.0861
4077
root -2.96619 17.5786 0.655592 3.56627 11.3058 -1.84315
lowerback 5.58931 0.762281 -1.47292
upperback 1.25031 0.983994 2.32763
thorax -1.9118 0.503412 3.15563
lowerneck -24.2922 -0.794451 -9.5716
upperneck 20.301 2.14423 1.02861
head 10.4307 0.34823 2.2646
rclavicle 4.17448e-015 -7.55382e-015
rhumerus -20.7077 -2.39674 -55.5139
rradius 57.0754
rwrist 33.678
rhand -36.4411 -0.213873
rfingers 7.12502
rthumb -9.53544 -29.9781
lclavicle 4.17448e-015 -7.55382e-015
lhumerus -2.14706 11.4668 51.1589
lradius 45.5989
lwrist -18.8872
lhand -19.9358 26.4009
lfingers 7.12502
lthumb 6.40177 56.2842
rfemur -13.2475 -2.40394 12.2589
rtibia 30.499
rfoot -19.3063 -7.19687
rtoes 4.43959
lfemur -19.7919 -2.8855 -13.0601
ltibia 34.0287
lfoot -15.6676 -3.1794
ltoes -20.3399
4078
root -2.95644 17.5824 0.660782 3.58854 11.9093 -2.03134
lowerback 5.53886 1.16523 -1.50544
upperback 1.22338 1.51708 2.21725
thorax -1.9444 0.770219 3.02078
lowerneck -23.648 -1.28088 -10.2177
upperneck 20.1044 1.54943 1.31083
head 10.2735 0.0709518 2.37179
rclavicle -1.99779e-014 -7.95139e-016
rhumerus -19.9421 -1.65553 -55.6196
rradius 57.5395
rwrist 34.0769
rhand -36.4201 -0.0943593
rfingers 7.12502
rthumb -9.51512 -29.8595
lclavicle -1.99779e-014 -7.95139e-016
lhumerus -2.96682 12.9228 50.1669
lradius 45.3132
lwrist -19.0856
lhand -20.0528 26.7266
lfingers 7.12502
lthumb 6.28883 56.6133
rfemur -13.0038 -2.59718 12.4607
rtibia 30.2901
rfoot -19.5633 -7.41536
rtoes 4.65662
lfemur -20.0436 -3.10213 -12.8801
ltibia 34.1186
lfoot -15.6693 -3.5348
ltoes -20.1975
4079
root -2.94927 17.5835 0.66244 3.70167 12.5945 -2.23935
lowerback 5.47295 1.47748 -1.49761
upperback 1.28292 1.9302 2.0767
thorax -1.8677 0.974672 2.8425
lowerneck -23.5495 -1.70207 -10.6612
upperneck 20.0259 1.05499 1.53357
head 10.257 -0.159152 2.44648
rclavicle -1.26725e-014 -9.14409e-015
rhumerus -18.9784 -0.865429 -55.8394
rradius 58.136
rwrist 34.1803
rhand -36.3459 0.00330687
rfingers 7.12502
rthumb -9.44354 -29.7651
lclavicle -1.26725e-014 -9.14409e-015
lhumerus -3.81877 14.2267 48.8701
lradius 45.3003
lwrist -18.8962
lhand -19.8119 27.4399
lfingers 7.12502
lthumb 6.52138 57.3195
rfemur -12.8986 -2.87224 12.6945
rtibia 30.0956
rfoot -19.743 -7.64507
rtoes 5.06688
lfemur -20.4514 -3.35462 -12.6657
ltibia 34.2262
lfoot -15.6449 -3.89965
ltoes -20.1903
4080
root -2.94424 17.5831 0.662545 3.83552 13.3219 -2.38777
lowerback 5.52338 1.72906 -1.43399
upperback 1.34383 2.26139 1.78246
thorax -1.83911 1.13808 2.47805
lowerneck -23.7185 -2.04329 -10.7703
upperneck 20.0554 0.604107 1.69837
head 10.327 -0.355067 2.45574
rclavicle 4.4652e-014 1.23246e-014
rhumerus -17.8737 -0.0480664 -56.3011
rradius 58.5082
rwrist 34.0078
rhand -36.5127 0.287062
rfingers 7.12502
rthumb -9.60453 -29.474
lclavicle 4.4652e-014 1.23246e-014
lhumerus -4.60869 15.5546 47.3162
lradius 45.2703
lwrist -18.7505
lhand -19.2249 27.1051
lfingers 7.12502
lthumb 7.08809 56.9664
rfemur -12.8077 -3.20447 12.8644
rtibia 29.9084
rfoot -19.9648 -7.92788
rtoes 4.97984
lfemur -20.8864 -3.71625 -12.5032
ltibia 34.347
lfoot -15.6283 -4.1895
ltoes -20.3974
4081
root -2.93927 17.583 0.665859 3.89836 13.9224 -2.55126
lowerback 5.561 2.05353 -1.38528
upperback 1.41633 2.68968 1.52376
thorax -1.79416 1.35001 2.15257
lowerneck -23.6899 -2.46322 -11.102
upperneck 20.0516 0.0620391 2.00206
head 10.3579 -0.590955 2.53528
rclavicle 3.35449e-014 -7.65321e-015
rhumerus -16.5519 0.726596 -56.6416
rradius 58.6043
rwrist 33.8461
rhand -36.7206 0.587521
rfingers 7.12502
rthumb -9.80504 -29.1642
lclavicle 3.35449e-014 -7.65321e-015
lhumerus -5.47459 16.8081 45.8617
lradius 45.2486
lwrist -18.5772
lhand -18.8892 26.8667
lfingers 7.12502
lthumb 7.41215 56.7168
rfemur -12.677 -3.48627 13.0482
rtibia 29.7455
rfoot -20.1707 -8.19245
rtoes 4.76306
lfemur -21.1999 -4.03409 -12.3224
ltibia 34.4712
lfoot -15.6062 -4.42317
ltoes -20.4354
4082
root -2.93074 17.5847 0.67363 3.96242 14.5454 -2.69276
lowerback 5.62341 2.37468 -1.35768
upperback 1.40271 3.1132 1.29552
thorax -1.84938 1.56119 1.86784
lowerneck -23.397 -2.8798 -11.479
upperneck 19.9952 -0.489338 2.2767
head 10.3274 -0.836617 2.60903
rclavicle -6.37043e-014 1.51573e-014
rhumerus -15.2779 1.46134 -56.8978
rradius 58.7131
rwrist 33.8383
rhand -36.7283 0.726074
rfingers 7.12502
rthumb -9.81248 -29.0253
lclavicle -6.37043e-014 1.51573e-014
lhumerus -6.52397 17.9772 44.4274
lradius 45.2184
lwrist -18.3407
lhand -19.0321 27.0462
lfingers 7.12502
lthumb 7.27414 56.9011
rfemur -12.5402 -3.84443 13.2079
rtibia 29.6118
rfoot -20.2439 -8.42149
rtoes 4.48244
lfemur -21.4828 -4.2934 -12.1826
ltibia 34.5697
lfoot -15.5902 -4.78609
ltoes -20.1578
